<svg xmlns="http://www.w3.org/2000/svg" viewBox="0 0 202.45 30.4"><defs><style>.cls-1{fill:#231f20;}.cls-2,.cls-3{fill:#ee243d;}.cls-2{fill-rule:evenodd;}</style></defs><g id="Layer_2" data-name="Layer 2"><g id="Layer_1-2" data-name="Layer 1"><path class="cls-1" d="M108.2,28.15a1.18,1.18,0,0,0-.47-1,4.65,4.65,0,0,0-1.57-.71,5.28,5.28,0,0,1-1.84-.83,1.62,1.62,0,0,1-.63-1.35,1.76,1.76,0,0,1,.71-1.43,2.82,2.82,0,0,1,1.8-.55,2.69,2.69,0,0,1,1.86.63,2,2,0,0,1,.68,1.6v0h-.59a1.61,1.61,0,0,0-.54-1.24,2,2,0,0,0-1.4-.49,2.07,2.07,0,0,0-1.38.41,1.27,1.27,0,0,0-.5,1,1.19,1.19,0,0,0,.45.95,4.53,4.53,0,0,0,1.6.69,5.2,5.2,0,0,1,1.83.86,1.64,1.64,0,0,1,.62,1.35,1.67,1.67,0,0,1-.73,1.42,3,3,0,0,1-1.85.54,3.34,3.34,0,0,1-1.95-.57,1.85,1.85,0,0,1-.81-1.66v0h.58a1.44,1.44,0,0,0,.66,1.3,2.67,2.67,0,0,0,1.51.43,2.35,2.35,0,0,0,1.41-.39A1.24,1.24,0,0,0,108.2,28.15Z"/><path class="cls-1" d="M111.14,30h-.63V22.42h.63Z"/><path class="cls-1" d="M118.8,30h-.62l-4.3-6.47h0V30h-.62V22.42h.62l4.3,6.46h0V22.42h.62Z"/><path class="cls-1" d="M126,27.63v0a2.19,2.19,0,0,1-.73,1.77,2.81,2.81,0,0,1-2,.67,2.58,2.58,0,0,1-2-.91,3.56,3.56,0,0,1-.77-2.36V25.59a3.56,3.56,0,0,1,.77-2.36,2.55,2.55,0,0,1,2-.91,2.84,2.84,0,0,1,2,.65,2.2,2.2,0,0,1,.72,1.78v0h-.58a1.83,1.83,0,0,0-.56-1.42,2.2,2.2,0,0,0-1.54-.51,1.92,1.92,0,0,0-1.59.76,3.12,3.12,0,0,0-.6,2v1.25a3.11,3.11,0,0,0,.6,2,1.92,1.92,0,0,0,1.59.76,2.2,2.2,0,0,0,1.54-.5,1.83,1.83,0,0,0,.56-1.44Z"/><path class="cls-1" d="M131.58,26.33h-3.4v3.13h3.93V30h-4.55V22.42h4.52V23h-3.9V25.8h3.4Z"/><path class="cls-1" d="M138.47,30h-.62V23l-1.8.22v-.5l2.42-.36Z"/><path class="cls-1" d="M143.63,29.57A1.69,1.69,0,0,0,145,29a2.21,2.21,0,0,0,.49-1.54v-1.1a1.94,1.94,0,0,1-.73.72,2.19,2.19,0,0,1-1,.24,2.11,2.11,0,0,1-1.65-.68,2.55,2.55,0,0,1-.62-1.78,2.64,2.64,0,0,1,.65-1.83,2.08,2.08,0,0,1,1.63-.73,2.26,2.26,0,0,1,1.73.7,2.78,2.78,0,0,1,.66,2v2.46a2.62,2.62,0,0,1-.69,1.93,2.34,2.34,0,0,1-1.78.7,4.13,4.13,0,0,1-.78-.08,4.42,4.42,0,0,1-.78-.25l.12-.5a2.67,2.67,0,0,0,.67.23A3.55,3.55,0,0,0,143.63,29.57Zm.07-2.75a1.8,1.8,0,0,0,1.75-1.15v-.73a2.31,2.31,0,0,0-.46-1.55,1.59,1.59,0,0,0-1.26-.54,1.44,1.44,0,0,0-1.19.58,2.27,2.27,0,0,0-.47,1.45,2.18,2.18,0,0,0,.44,1.39A1.43,1.43,0,0,0,143.7,26.82Z"/><path class="cls-1" d="M149.53,29.57a1.66,1.66,0,0,0,1.32-.55,2.21,2.21,0,0,0,.5-1.54v-1.1a2,2,0,0,1-.74.72,2.12,2.12,0,0,1-1,.24,2.09,2.09,0,0,1-1.65-.68,2.51,2.51,0,0,1-.62-1.78,2.6,2.6,0,0,1,.65-1.83,2.06,2.06,0,0,1,1.62-.73,2.25,2.25,0,0,1,1.73.7,2.78,2.78,0,0,1,.66,2v2.46a2.66,2.66,0,0,1-.68,1.93,2.37,2.37,0,0,1-1.78.7,3.77,3.77,0,0,1-1.56-.33l.12-.5a2.54,2.54,0,0,0,.67.23A3.55,3.55,0,0,0,149.53,29.57Zm.07-2.75a1.83,1.83,0,0,0,1.11-.33,1.88,1.88,0,0,0,.64-.82v-.73a2.31,2.31,0,0,0-.47-1.55,1.57,1.57,0,0,0-1.25-.54,1.46,1.46,0,0,0-1.2.58,2.33,2.33,0,0,0-.46,1.45,2.24,2.24,0,0,0,.43,1.39A1.44,1.44,0,0,0,149.6,26.82Z"/><path class="cls-1" d="M157.2,27.55h1.19v.53H157.2V30h-.61V28.08h-3.48v-.36l3.41-5.3h.68Zm-3.35,0h2.74V23.24h0l-.26.57Z"/><path class="cls-2" d="M21.91,1.92A2.83,2.83,0,0,0,19.42.24a2.87,2.87,0,0,0-2.53,1.68L0,30.33H5.92L19.21,7.55,30.3,25.8H12.22L9.71,30.33H39Z"/><path class="cls-3" d="M50,20.9c3.81-1.49,6.08-5,6.08-9.95C56.09,4.25,52.12,0,45.4,0H23.91l3.24,5.25H45.4C48.92,5.25,51,7.14,51,11s-2,6-5.63,6H34.72l2.75,4.62h6.74l5.06,8.72h6.51"/><path class="cls-3" d="M67.77,0H56.18l3,5.24h8.57C73.07,5.25,77,9.64,77,15.3s-3.89,9.83-9.19,9.83H56.25l3,5.23h8.57c8.3,0,14.33-6.61,14.33-15.32S76.07,0,67.77,0Z"/><rect class="cls-1" x="92.89" width="0.71" height="30.4"/><path class="cls-1" d="M127,0h1l6.11,15.47h-1l-2-5h-7.41l-2,5h-1Zm3.87,9.69L127.58.93h0l-3.44,8.76Z"/><path class="cls-1" d="M142,0h1l6.11,15.47h-1l-1.95-5H138.8l-2,5h-1Zm3.88,9.69L142.59.93h0l-3.44,8.76Z"/><path class="cls-1" d="M149.7.82V0h11.85V.82h-5.46V15.47h-1V.82Z"/><path class="cls-1" d="M164.78,0h9.45V.82h-8.5V15.47h-.95Z"/><path class="cls-1" d="M180.63,0h1l6.11,15.47h-1l-1.95-5H177.4l-2,5h-1Zm3.88,9.69L181.19.93h0l-3.44,8.76Z"/><path class="cls-1" d="M202.45,0V15.47h-.95V.82h-6.85l-.35,9.73a13.45,13.45,0,0,1-.25,2.36,4.82,4.82,0,0,1-.59,1.6,2.29,2.29,0,0,1-1,.89,3,3,0,0,1-1.35.29,3.62,3.62,0,0,1-.76-.08,5.56,5.56,0,0,1-.65-.18v-.87a2.92,2.92,0,0,0,1.3.3,2.34,2.34,0,0,0,1-.2,1.65,1.65,0,0,0,.7-.73,4.5,4.5,0,0,0,.44-1.37,14.46,14.46,0,0,0,.21-2.16L193.72,0Z"/><path class="cls-1" d="M105.72,15.47h13v-.82H117.2V0h-8.73V2.15c0,.86,0,1.81-.06,2.84a29.7,29.7,0,0,1-.28,3.19,24.4,24.4,0,0,1-.69,3.29,15.15,15.15,0,0,1-1.29,3.18h-1.36v.82Zm2.69-4a27.67,27.67,0,0,0,.68-3.25c.15-1.08.24-2.13.28-3.15s0-2,0-2.82V.82h6.83V14.65h-9.06A15.28,15.28,0,0,0,108.41,11.52Z"/></g></g></svg>