<svg width="18" height="19" viewBox="0 0 18 19" fill="none" xmlns="http://www.w3.org/2000/svg">
<path fill-rule="evenodd" clip-rule="evenodd" d="M3.81326 2.3246C4.47158 2.3246 4.65007 2.33358 4.78726 2.38587C4.9625 2.45266 5.1136 2.57063 5.22089 2.72444C5.30489 2.84485 5.35689 3.01583 5.51656 3.6545L5.6102 4.02905C5.83539 4.92985 5.91579 5.27311 5.90322 5.60057C5.89145 5.90722 5.82169 6.20886 5.69764 6.48955C5.56517 6.78928 5.34224 7.0624 4.74443 7.77288L3.68871 9.02758C2.93081 7.54513 2.41897 5.86143 2.19153 4.00657C2.1053 3.30339 2.09655 3.12617 2.16127 2.94489C2.23263 2.74501 2.43267 2.51894 2.62238 2.42378C2.69479 2.38746 2.79109 2.35864 2.97807 2.34231C3.1753 2.32509 3.42836 2.3246 3.81326 2.3246ZM5.60247 8.49484L4.28039 10.0661C5.23616 11.5782 6.47855 12.8474 7.96544 13.8321L9.83975 12.4286L9.90409 12.3805L9.90411 12.3804C10.5113 11.9256 10.9025 11.6326 11.3457 11.4574C11.7376 11.3025 12.154 11.2186 12.5753 11.2096C13.0518 11.1994 13.5259 11.3181 14.2619 11.5022L14.3399 11.5217L14.8782 11.6563L14.9693 11.679C15.4722 11.8043 15.8654 11.9022 16.1779 12.1202C16.5163 12.3562 16.7758 12.6886 16.9228 13.0742C17.0584 13.4301 17.058 13.8277 17.0576 14.3343L17.0575 14.4248V14.4477C17.0575 14.811 17.0576 15.1186 17.0356 15.3738C17.0125 15.6437 16.9623 15.896 16.8393 16.1412C16.6147 16.5889 16.1647 16.9872 15.6929 17.1556C15.2321 17.3201 14.7765 17.2637 14.2094 17.1936L14.1176 17.1823C11.7075 16.8867 9.54244 16.1369 7.69463 14.9903C5.79917 13.8142 4.24595 12.2256 3.1087 10.2989C2.0531 8.51055 1.35987 6.43778 1.0785 4.14305L1.06717 4.05126C0.997021 3.48417 0.940673 3.02868 1.10518 2.56787C1.27361 2.09609 1.67185 1.64603 2.11963 1.42144C2.3636 1.29906 2.61313 1.24854 2.88054 1.2252C3.13229 1.20322 3.43455 1.20323 3.79024 1.20324L3.81326 1.20324L3.90713 1.20318C4.42536 1.20271 4.8306 1.20234 5.18661 1.33802C5.57214 1.48495 5.90455 1.74449 6.1406 2.08287C6.35857 2.39534 6.4565 2.78857 6.58173 3.29144L6.58173 3.29145L6.60444 3.38253L6.69808 3.75708L6.71906 3.84093L6.71906 3.84094C6.91623 4.62895 7.04322 5.13645 7.02376 5.64358C7.00656 6.09176 6.90461 6.53262 6.7233 6.94285C6.51815 7.40704 6.18125 7.80727 5.65813 8.42871L5.60247 8.49484ZM14.254 16.0692C12.3041 15.8301 10.5433 15.2767 9.00651 14.4534L10.5119 13.3263C11.2055 12.8069 11.4716 12.6134 11.7579 12.5003C12.0261 12.3943 12.3109 12.3369 12.5992 12.3307C12.9069 12.3242 13.2272 12.3994 14.0679 12.6096L14.6063 12.7442C15.2449 12.9039 15.4159 12.9559 15.5363 13.0399C15.6901 13.1472 15.8081 13.2983 15.8749 13.4735C15.9273 13.6111 15.9362 13.7833 15.9362 14.4248C15.9362 14.8172 15.9357 15.0763 15.9184 15.2778C15.9019 15.4698 15.8727 15.5671 15.837 15.6384C15.7418 15.8281 15.5158 16.0282 15.3159 16.0995C15.1346 16.1642 14.9573 16.1555 14.254 16.0692Z" fill="#BBC1C9"/>
</svg>
