<svg width="18" height="18" viewBox="0 0 18 18" fill="none" xmlns="http://www.w3.org/2000/svg">
<path fill-rule="evenodd" clip-rule="evenodd" d="M9.79289 3.0429C10.1834 2.65237 10.8166 2.65237 11.2071 3.04289L16.4571 8.29284C16.6446 8.48037 16.75 8.73473 16.75 8.99995C16.75 9.26516 16.6446 9.51952 16.4571 9.70705L11.2071 14.9571C10.8166 15.3476 10.1834 15.3476 9.79289 14.9571C9.40237 14.5665 9.40237 13.9334 9.79289 13.5428L13.3358 9.99995H2.25C1.69772 9.99995 1.25 9.55223 1.25 8.99995C1.25 8.44766 1.69772 7.99995 2.25 7.99995H13.3358L9.7929 4.45711C9.40237 4.06659 9.40237 3.43342 9.79289 3.0429Z" fill="white"/>
</svg>
