<svg width="24" height="24" viewBox="0 0 24 24" fill="none" xmlns="http://www.w3.org/2000/svg">
<path fill-rule="evenodd" clip-rule="evenodd" d="M9.29289 5.29289C9.68342 4.90237 10.3166 4.90237 10.7071 5.29289L14.4444 9.03015L14.4716 9.0574C14.8444 9.43014 15.166 9.7517 15.4092 10.0382C15.6659 10.3406 15.8935 10.6691 16.0247 11.0729C16.2205 11.6755 16.2205 12.3245 16.0247 12.9271C15.8935 13.3309 15.6659 13.6594 15.4092 13.9618C15.166 14.2483 14.8444 14.5699 14.4716 14.9426L14.4444 14.9698L10.7071 18.7071C10.3166 19.0976 9.68342 19.0976 9.29289 18.7071C8.90237 18.3166 8.90237 17.6834 9.29289 17.2929L13.0302 13.5556C13.4378 13.148 13.7005 12.8842 13.8845 12.6674C14.0609 12.4597 14.1055 12.3618 14.1226 12.309C14.1879 12.1082 14.1879 11.8918 14.1226 11.691C14.1055 11.6382 14.0609 11.5403 13.8845 11.3326C13.7005 11.1158 13.4378 10.852 13.0302 10.4444L9.29289 6.70711C8.90237 6.31658 8.90237 5.68342 9.29289 5.29289Z" fill="white"/>
</svg>
