<svg width="18" height="15" viewBox="0 0 18 15" fill="none" xmlns="http://www.w3.org/2000/svg">
<path d="M12.0271 0.0735542V0.0703125H12.8711L13.1794 0.131904C13.385 0.171891 13.5717 0.224292 13.7394 0.289126C13.9071 0.35396 14.0694 0.429604 14.2263 0.516044C14.3832 0.602483 14.5255 0.69056 14.6532 0.780241C14.7798 0.868852 14.8934 0.962861 14.9941 1.06227C15.0936 1.16276 15.2489 1.18869 15.4599 1.14007C15.6709 1.09144 15.8981 1.0239 16.1416 0.937462C16.385 0.851023 16.6258 0.753772 16.8638 0.645711C17.1019 0.53765 17.2469 0.469039 17.2988 0.439864C17.3497 0.409619 17.3768 0.393411 17.38 0.391239L17.3832 0.386376L17.3995 0.378272L17.4157 0.370168L17.4319 0.362064L17.4482 0.35396L17.4514 0.349097L17.4563 0.345855L17.4612 0.342614L17.4644 0.337751L17.4806 0.332889L17.4968 0.329647L17.4936 0.35396L17.4887 0.378272L17.4806 0.402585L17.4725 0.426897L17.4644 0.443106L17.4563 0.459314L17.4482 0.483627C17.4427 0.499835 17.4373 0.521441 17.4319 0.548461C17.4265 0.57548 17.3751 0.683525 17.2777 0.872629C17.1803 1.06173 17.0586 1.25353 16.9125 1.44803C16.7665 1.64253 16.6355 1.78947 16.5198 1.8889C16.4029 1.98939 16.3255 2.05962 16.2876 2.09961C16.2498 2.14066 16.2038 2.17848 16.1497 2.21306L16.0685 2.26655L16.0523 2.27466L16.0361 2.28276L16.0328 2.28762L16.028 2.29086L16.0231 2.29411L16.0198 2.29897L16.0036 2.30707L15.9874 2.31518L15.9841 2.32004L15.9793 2.32328L15.9744 2.32652L15.9711 2.33139L15.9679 2.33625L15.963 2.33949L15.9582 2.34273L15.9549 2.34759H16.0361L16.4905 2.25034C16.7935 2.18551 17.083 2.10717 17.3589 2.01532L17.7971 1.86945L17.8458 1.85324L17.8702 1.84513L17.8864 1.83703L17.9026 1.82892L17.9188 1.82082L17.9351 1.81272L17.9675 1.80785L18 1.80461V1.83703L17.9919 1.84027L17.9838 1.84513L17.9805 1.85L17.9757 1.85324L17.9708 1.85648L17.9675 1.86134L17.9643 1.8662L17.9594 1.86945L17.9546 1.87269L17.9513 1.87755L17.9481 1.88241L17.9432 1.88565L17.9351 1.90186L17.927 1.91807L17.9221 1.92131C17.9199 1.92455 17.8512 2.01639 17.716 2.19686C17.5807 2.37839 17.5077 2.47023 17.4968 2.4724C17.486 2.47564 17.4709 2.49185 17.4514 2.52102C17.433 2.55127 17.3183 2.67176 17.1073 2.88247C16.8963 3.09318 16.6897 3.28065 16.4873 3.4449C16.2839 3.61023 16.1811 3.81337 16.1789 4.05434C16.1757 4.29422 16.1632 4.56546 16.1416 4.868C16.1199 5.17056 16.0794 5.49742 16.0198 5.84861C15.9603 6.1998 15.8684 6.5969 15.7439 7.03993C15.6195 7.48295 15.468 7.91518 15.2894 8.3366C15.1109 8.75802 14.9243 9.13621 14.7295 9.47119C14.5347 9.80617 14.3562 10.0898 14.1939 10.3221C14.0316 10.5544 13.8666 10.7733 13.6988 10.9786C13.5311 11.1839 13.319 11.4151 13.0626 11.6723C12.8051 11.9284 12.6644 12.0689 12.6406 12.0937C12.6157 12.1175 12.5097 12.2061 12.3225 12.3595C12.1363 12.514 11.9362 12.6686 11.7219 12.8231C11.5088 12.9765 11.3129 13.1046 11.1344 13.2072C10.9558 13.3099 10.7405 13.4271 10.4884 13.559C10.2373 13.6919 9.96573 13.815 9.67358 13.9285C9.38142 14.042 9.07304 14.1473 8.74842 14.2446C8.42381 14.3418 8.11001 14.4175 7.80703 14.4715C7.50407 14.5255 7.16051 14.5714 6.77637 14.6093L6.20018 14.666V14.6741H5.14518V14.666L5.00721 14.6579C4.91525 14.6525 4.8395 14.6471 4.77998 14.6417C4.72048 14.6363 4.49594 14.6065 4.1064 14.5525C3.71686 14.4985 3.41119 14.4445 3.18936 14.3904C2.96755 14.3364 2.63751 14.2338 2.19928 14.0825C1.76105 13.9312 1.38611 13.7783 1.07448 13.6238C0.763937 13.4703 0.569167 13.3731 0.490171 13.332C0.412263 13.292 0.324617 13.2424 0.227232 13.1829L0.0811542 13.0938L0.0779243 13.0889L0.0730388 13.0857L0.0681695 13.0824L0.0649234 13.0776L0.0486925 13.0695L0.0324617 13.0614L0.0292317 13.0565L0.0243463 13.0532L0.019477 13.05L0.0162308 13.0451L0.0130009 13.0403L0.00811542 13.037H0V13.0046L0.0162308 13.0079L0.0324617 13.0127L0.1055 13.0208C0.154193 13.0262 0.28675 13.0343 0.503156 13.0451C0.719578 13.056 0.949504 13.056 1.19297 13.0451C1.43643 13.0343 1.68531 13.01 1.93959 12.9722C2.19387 12.9344 2.49414 12.8696 2.8404 12.7777C3.18667 12.6859 3.50479 12.5767 3.79479 12.4503C4.08369 12.3228 4.28927 12.2277 4.41156 12.165C4.53274 12.1034 4.71777 11.9889 4.96664 11.8214L5.33995 11.5702L5.34319 11.5653L5.34806 11.5621L5.35295 11.5588L5.35618 11.554L5.35942 11.5491L5.36429 11.5459L5.36918 11.5426L5.37241 11.5378L5.38864 11.5329L5.40487 11.5297L5.40812 11.5134L5.41298 11.4972L5.41787 11.494L5.4211 11.4891L5.29125 11.481C5.20469 11.4756 5.12083 11.4702 5.03968 11.4648C4.95852 11.4594 4.83139 11.4351 4.65825 11.3919C4.48513 11.3487 4.29848 11.2838 4.09829 11.1974C3.89811 11.1109 3.70334 11.0083 3.51398 10.8894C3.32463 10.7706 3.18774 10.6717 3.10334 10.5928C3.02002 10.515 2.91181 10.4048 2.77872 10.2622C2.64671 10.1185 2.53201 9.97094 2.43463 9.81967C2.33724 9.6684 2.24419 9.49387 2.15547 9.29614L2.02074 9.00115L2.01262 8.97683L2.00451 8.95252L1.99964 8.93631L1.99639 8.9201L2.02074 8.92335L2.04509 8.92821L2.22362 8.95252C2.34266 8.96873 2.52932 8.97413 2.78359 8.96873C3.03788 8.96333 3.21371 8.95252 3.31109 8.93631C3.40848 8.9201 3.46799 8.90929 3.48963 8.9039L3.52209 8.89579L3.56267 8.88769L3.60325 8.87958L3.60649 8.87472L3.61136 8.87148L3.61625 8.86824L3.61948 8.86337L3.58702 8.85527L3.55455 8.84717L3.52209 8.83906L3.48963 8.83096L3.45717 8.82285C3.43553 8.81746 3.39767 8.80664 3.34355 8.79044C3.28946 8.77423 3.14338 8.71479 2.90532 8.61214C2.66728 8.5095 2.47791 8.40954 2.33724 8.31229C2.19622 8.21476 2.06176 8.10809 1.93472 7.99298C1.80812 7.87628 1.66908 7.72608 1.51758 7.54239C1.3661 7.3587 1.23085 7.14528 1.11181 6.90216C0.992792 6.65903 0.903522 6.42672 0.844004 6.20519C0.784724 5.98498 0.745615 5.75984 0.727158 5.53255L0.697926 5.19217L0.714157 5.19541L0.730388 5.20027L0.746619 5.20838L0.762849 5.21648L0.77908 5.22459L0.795311 5.23269L1.04689 5.34615C1.21462 5.42179 1.42291 5.48663 1.67178 5.54065C1.92066 5.59467 2.06943 5.6244 2.11812 5.6298L2.19116 5.6379H2.33724L2.33401 5.63304L2.32913 5.6298L2.32426 5.62655L2.32101 5.62169L2.31778 5.61683L2.31289 5.61359L2.30803 5.61035L2.30478 5.60548L2.28855 5.59738L2.27232 5.58928L2.26909 5.58441L2.2642 5.58117L2.25933 5.57793L2.25609 5.57307L2.23986 5.56496L2.22362 5.55686L2.22039 5.552C2.21715 5.54982 2.17061 5.51525 2.08079 5.44826C1.99206 5.38019 1.89901 5.29213 1.80162 5.18407C1.70424 5.076 1.60685 4.96254 1.50947 4.84369C1.4119 4.72456 1.32501 4.5971 1.24977 4.46279C1.17404 4.32773 1.09396 4.1559 1.00956 3.94736C0.926245 3.7399 0.862945 3.53081 0.819657 3.3201C0.776386 3.10939 0.75204 2.90139 0.746619 2.69607C0.741214 2.49076 0.746619 2.31518 0.762849 2.1693C0.77908 2.02343 0.811542 1.85863 0.860234 1.67494C0.908927 1.49126 0.979271 1.29675 1.07124 1.09144L1.2092 0.783482L1.21731 0.75917L1.22543 0.734857L1.23031 0.731616L1.23354 0.726753L1.23679 0.721891L1.24166 0.718649L1.24654 0.721891L1.24977 0.726753L1.25302 0.731616L1.25789 0.734857L1.26278 0.738099L1.26601 0.742961L1.26925 0.747824L1.27412 0.751066L1.28224 0.767274L1.29035 0.783482L1.29524 0.786724L1.29847 0.791587L1.51758 1.03471C1.66366 1.1968 1.8368 1.3778 2.03697 1.57769C2.23716 1.77759 2.34807 1.88133 2.3697 1.8889C2.39135 1.89753 2.41839 1.92238 2.45086 1.96345C2.48332 2.00344 2.59153 2.09907 2.77547 2.25034C2.95943 2.40162 3.20019 2.57722 3.49775 2.77712C3.79532 2.97702 4.12534 3.17422 4.48783 3.36872C4.85033 3.56322 5.23987 3.73881 5.65645 3.8955C6.07304 4.05218 6.3652 4.15483 6.53291 4.20346C6.70064 4.25208 6.98738 4.31421 7.39315 4.38985C7.79892 4.4655 8.10461 4.51412 8.31019 4.53573C8.51579 4.55733 8.65646 4.56977 8.73219 4.57301L8.84581 4.57625L8.84258 4.55194L8.83769 4.52762L8.80523 4.32502C8.78359 4.18996 8.77277 4.00085 8.77277 3.75773C8.77277 3.5146 8.79171 3.29039 8.82958 3.08508C8.86746 2.87976 8.92427 2.67176 9 2.46105C9.07575 2.25034 9.14988 2.08122 9.22236 1.95373C9.29595 1.8273 9.39225 1.68305 9.51127 1.52097C9.63031 1.35888 9.7845 1.1914 9.97385 1.0185C10.1632 0.845609 10.3796 0.691629 10.6231 0.556565C10.8665 0.4215 11.0911 0.318836 11.2967 0.248605C11.5023 0.178374 11.6754 0.132439 11.8161 0.110834C11.9567 0.0892277 12.0271 0.0767959 12.0271 0.0735542Z" fill="#646464"/>
</svg>
