<svg width="18" height="19" viewBox="0 0 18 19" fill="none" xmlns="http://www.w3.org/2000/svg">
<path fill-rule="evenodd" clip-rule="evenodd" d="M0 9.375C0 5.77986 0 3.98229 0.856692 2.68755C1.23925 2.10939 1.73439 1.61425 2.31255 1.23169C3.60729 0.375 5.40486 0.375 9 0.375C12.5951 0.375 14.3927 0.375 15.6874 1.23169C16.2656 1.61425 16.7608 2.10939 17.1433 2.68755C18 3.98229 18 5.77986 18 9.375C18 12.9701 18 14.7677 17.1433 16.0624C16.7608 16.6406 16.2656 17.1358 15.6874 17.5183C14.3927 18.375 12.5951 18.375 9 18.375C5.40486 18.375 3.60729 18.375 2.31255 17.5183C1.73439 17.1358 1.23925 16.6406 0.856692 16.0624C0 14.7677 0 12.9701 0 9.375ZM13.6596 9.37816C13.6596 11.9515 11.5736 14.0376 9.00023 14.0376C6.42691 14.0376 4.34082 11.9515 4.34082 9.37816C4.34082 6.80484 6.42691 4.71875 9.00023 4.71875C11.5736 4.71875 13.6596 6.80484 13.6596 9.37816ZM9.00023 12.4612C10.7029 12.4612 12.0832 11.0809 12.0832 9.37816C12.0832 7.67546 10.7029 6.29516 9.00023 6.29516C7.29753 6.29516 5.91723 7.67546 5.91723 9.37816C5.91723 11.0809 7.29753 12.4612 9.00023 12.4612ZM13.8436 5.58027C14.4483 5.58027 14.9385 5.0901 14.9385 4.48545C14.9385 3.88079 14.4483 3.39062 13.8436 3.39062C13.239 3.39062 12.7488 3.88079 12.7488 4.48545C12.7488 5.0901 13.239 5.58027 13.8436 5.58027Z" fill="#646464"/>
</svg>
