<svg xmlns="http://www.w3.org/2000/svg" viewBox="0 0 449.56 90.2"><defs><style>.cls-1{fill:#eb222a;}</style></defs><g id="Layer_2" data-name="Layer 2"><g id="Layer_1-2" data-name="Layer 1"><path class="cls-1" d="M194.75,2,33.43,3.23c-11.71.09-13.38,13-13.38,13l.13,16.59C.77,33,0,48.09,0,48.09L.08,58l12.44-.1c6.08-.05,7.92,8.23,7.92,8.23l.11,14.22c.06,7,10.89,9.84,13.26,9.83s21.13-7.68,21.13-7.68L174.11,33.24l-.06-7.56-23.11.19,43.87-17ZM107.9,34.43l-48.54-12,48.37,19.83L129.89,34l22.67-.18L39.81,80.74s-7.29,5.17-12.12-1.35l-.12-15.22S25,53.41,15.8,51.15l-8.44.07s1.31-10,10.58-11.09l9.94-.07,22.66-8.18-23.22.18L27.21,18s.83-7.67,7.66-7.78S172.59,9.08,172.59,9.08Z"/><rect class="cls-1" x="143.54" y="53.94" width="52" height="2.74" transform="translate(-0.43 1.33) rotate(-0.45)"/><rect class="cls-1" x="211.5" y="49.5" width="8.96" height="38" transform="translate(-0.53 1.7) rotate(-0.45)"/><rect class="cls-1" x="231.5" y="49.35" width="8.96" height="38" transform="translate(-0.53 1.86) rotate(-0.45)"/><rect class="cls-1" x="251.5" y="49.19" width="8.96" height="38" transform="translate(-0.53 2.01) rotate(-0.45)"/><rect class="cls-1" x="324.38" y="2.06" width="8.96" height="38"/><rect class="cls-1" x="300.71" y="2.06" width="8.96" height="38"/><rect class="cls-1" x="313.68" y="3.21" width="6.7" height="32.63" transform="translate(336.55 -297.5) rotate(90)"/><polygon class="cls-1" points="440.6 50.02 440.6 64.14 425.9 64.14 425.9 50.02 416.94 50.02 416.94 64.14 416.94 70.84 416.94 88.02 425.9 88.02 425.9 70.84 440.6 70.84 440.6 88.02 449.56 88.02 449.56 70.84 449.56 64.14 449.56 50.02 440.6 50.02"/><rect class="cls-1" x="342.79" y="2.06" width="8.96" height="38"/><rect class="cls-1" x="352.32" y="-7.48" width="6.7" height="25.78" transform="translate(361.09 -350.26) rotate(90)"/><polygon class="cls-1" points="240.01 1.35 238.47 1.36 230.18 20.43 221.92 1.49 219.94 1.51 210.97 1.58 211.27 39.58 220.24 39.51 220.04 14.82 227.26 30.32 233.26 30.27 240.11 14.33 240.31 39.35 249.27 39.28 248.97 1.28 240.01 1.35"/><path class="cls-1" d="M421.66,2.06s.77,27.43-5,29.31h-3v8.69h6.44s9.59-1.41,9.59-25.37V9.4h9.86V40.06h9.11v-38Z"/><path class="cls-1" d="M263.35,49.13l9.93-.08,9.84,18.08,7.34-18.21,9.93-.08L287.87,77.61s-5.4,10-10.44,10.08l-9.63.07-.06-8.37,8.9-.07s2.95.43,1-3.45S263.35,49.13,263.35,49.13Z"/><path class="cls-1" d="M301.9,50h9.92l9.71,18.15L329,50h9.92L326.19,78.69s-5.48,10-10.51,10h-9.63V80.32H315s2.95.44,1-3.44S301.9,50,301.9,50Z"/><path class="cls-1" d="M369.64,81.76V50H342.79s-1.48,26-6.37,31.41h-3.08v7.26h39V81.76Zm-9.37-.14h-15c4-4,5.56-24.52,5.56-24.52h9.48Z"/><path class="cls-1" d="M400.42,50H389.68L376.34,88h9.19l2.15-7.29,13.85-.08,2.15,7H414ZM389.9,73.91,395.16,60l5,13.92Z"/><path class="cls-1" d="M275.12,0h0a19.21,19.21,0,0,0-19.05,19.35l0,2.26a19.21,19.21,0,0,0,19.35,19.06h0a19.2,19.2,0,0,0,19.05-19.36V19.05A19.21,19.21,0,0,0,275.12,0Zm9.29,24.1a9.1,9.1,0,0,1-9,9.18h0a9.11,9.11,0,0,1-9.17-9l-.06-7.47a9.1,9.1,0,0,1,9-9.17h0a9.1,9.1,0,0,1,9.17,9Z"/><path class="cls-1" d="M391.11,1h0a19.19,19.19,0,0,0-19.2,19.2v2.26a19.19,19.19,0,0,0,19.2,19.2h0a19.19,19.19,0,0,0,19.2-19.2V20.19A19.19,19.19,0,0,0,391.11,1Zm9.1,24.17a9.09,9.09,0,0,1-9.1,9.1h0a9.09,9.09,0,0,1-9.1-9.1V17.7a9.09,9.09,0,0,1,9.1-9.1h0a9.09,9.09,0,0,1,9.1,9.1Z"/></g></g></svg>