<svg xmlns="http://www.w3.org/2000/svg" viewBox="0 0 232.64 42.64"><defs><style>.cls-1,.cls-2{fill:#ee243d;}.cls-1{fill-rule:evenodd;}.cls-3{fill:#231f20;}</style></defs><g id="Layer_2" data-name="Layer 2"><g id="Layer_1-2" data-name="Layer 1"><path class="cls-1" d="M30.72,2.69C29.86,1.25,28.83.34,27.23.34a4.05,4.05,0,0,0-3.55,2.35L0,42.53H8.3L26.94,10.58l15.55,25.6H17.13l-3.51,6.35H54.71Z"/><path class="cls-2" d="M70.13,29.31c5.34-2.09,8.52-7,8.52-14C78.65,6,73.09,0,63.66,0H33.53l4.54,7.36H63.66c4.94,0,7.89,2.66,7.89,8.1s-2.72,8.46-7.89,8.46h-15l3.85,6.49H62l7.09,12.23h9.13"/><path class="cls-2" d="M95,0H78.78L83,7.35H95c7.44,0,12.89,6.16,12.89,14.09S102.47,35.24,95,35.24H78.87L83,42.59H95c11.64,0,20.1-9.27,20.1-21.48S106.67,0,95,0Z"/><path class="cls-3" d="M134.12.93h.94V9.78L144.74.93H146l-7,6.4,7.45,9h-1.18l-7-8.34-3.19,2.91v5.43h-.94Z"/><path class="cls-3" d="M151.63.93h6.55a7.65,7.65,0,0,1,1.43.15,3.82,3.82,0,0,1,1.46.61A3.62,3.62,0,0,1,162.21,3a4.75,4.75,0,0,1,.45,2.23,3.94,3.94,0,0,1-1.25,3.12,5.27,5.27,0,0,1-3.58,1.1h-5.25v6.85h-1Zm1,7.71H158a4.58,4.58,0,0,0,1.76-.31,3.21,3.21,0,0,0,1.15-.81,3.12,3.12,0,0,0,.63-1.1,4.19,4.19,0,0,0,.19-1.21,4.73,4.73,0,0,0-.13-1,3.24,3.24,0,0,0-.52-1.14A3,3,0,0,0,160,2.12a3.91,3.91,0,0,0-1.86-.37h-5.53Z"/><path class="cls-3" d="M168.67.93H179v.82h-9.4V7.91h8.84v.81h-8.84v6.77h9.5v.82H168.67Z"/><path class="cls-3" d="M197.06,19.33V15.56H185v3.77h-.92V14.78h1.35a14.15,14.15,0,0,0,1.29-3,22.12,22.12,0,0,0,.69-3.12,29.05,29.05,0,0,0,.28-3c0-1,.05-1.87.05-2.69v-2h8.68V14.78H198v4.55ZM195.48,1.71H188.7V3.1c0,.82,0,1.71,0,2.67a26.09,26.09,0,0,1-.29,3,24.8,24.8,0,0,1-.66,3.07,14.42,14.42,0,0,1-1.22,3h9Z"/><path class="cls-3" d="M214.55,2.11h-.07l-9.54,14.2h-1.16V.93h.94V15.12h.07L214.31.93h1.19V16.31h-.95Z"/><path class="cls-3" d="M220.86,1.75V.93h11.78v.82h-5.43V16.31h-1V1.75Z"/><path class="cls-3" d="M135.06,27.59v5.93h6a4.81,4.81,0,0,1,3.38,1.12,4.08,4.08,0,0,1,1.23,3.18,4.8,4.8,0,0,1-.32,1.79,3.85,3.85,0,0,1-.94,1.37,4.11,4.11,0,0,1-1.48.87,5.79,5.79,0,0,1-1.93.3h-6.85V26.78h10.51v.81Zm5.82,13.75a4,4,0,0,0,2.79-.92,3.3,3.3,0,0,0,1-2.6,3.27,3.27,0,0,0-1-2.58,4,4,0,0,0-2.78-.9h-5.84v7Z"/><path class="cls-3" d="M152.94,27.59v5.93h6a4.81,4.81,0,0,1,3.38,1.12,4.08,4.08,0,0,1,1.23,3.18,4.8,4.8,0,0,1-.32,1.79,3.85,3.85,0,0,1-.94,1.37,4.11,4.11,0,0,1-1.48.87,5.83,5.83,0,0,1-1.93.3H152V26.78h10.52v.81Zm5.82,13.75a4,4,0,0,0,2.79-.92,3.3,3.3,0,0,0,1-2.6,3.3,3.3,0,0,0-1-2.58,4,4,0,0,0-2.78-.9h-5.84v7Z"/><path class="cls-3" d="M169.29,34.46a9.81,9.81,0,0,1,.5-3.15,7.44,7.44,0,0,1,1.43-2.56,6.59,6.59,0,0,1,2.3-1.72,7.51,7.51,0,0,1,3.09-.62,7.14,7.14,0,0,1,2.35.35,6.11,6.11,0,0,1,1.67.89,5.23,5.23,0,0,1,1.11,1.15A6.49,6.49,0,0,1,182.4,30a6.42,6.42,0,0,1,.31,1c.06.27.09.41.09.44h-1a4.7,4.7,0,0,0-.62-1.73,4.93,4.93,0,0,0-1.19-1.3,5.17,5.17,0,0,0-1.58-.82,5.92,5.92,0,0,0-1.85-.28,6,6,0,0,0-2.69.58,6.15,6.15,0,0,0-2,1.56,6.81,6.81,0,0,0-1.25,2.3,9.3,9.3,0,0,0,0,5.59,6.81,6.81,0,0,0,1.25,2.3,6.15,6.15,0,0,0,2,1.56,6,6,0,0,0,2.69.58,4.81,4.81,0,0,0,2.1-.46A5.75,5.75,0,0,0,180.43,40a6,6,0,0,0,1.17-1.76,6.11,6.11,0,0,0,.51-2.08h.94a7.56,7.56,0,0,1-.67,2.54,7.45,7.45,0,0,1-1.4,2,6.06,6.06,0,0,1-4.37,1.8,7.51,7.51,0,0,1-3.09-.62,6.59,6.59,0,0,1-2.3-1.72,7.44,7.44,0,0,1-1.43-2.56A9.83,9.83,0,0,1,169.29,34.46Z"/><path class="cls-3" d="M190.29,27.59v5.93h6a4.82,4.82,0,0,1,3.38,1.12,4.08,4.08,0,0,1,1.23,3.18,4.61,4.61,0,0,1-.33,1.79,3.71,3.71,0,0,1-.93,1.37,4.11,4.11,0,0,1-1.48.87,5.85,5.85,0,0,1-1.94.3h-6.85V26.78h10.52v.81Zm5.82,13.75a4,4,0,0,0,2.79-.92,3.3,3.3,0,0,0,1-2.6,3.3,3.3,0,0,0-1-2.58,4,4,0,0,0-2.78-.9h-5.84v7Z"/></g></g></svg>