<svg xmlns="http://www.w3.org/2000/svg" viewBox="0 0 832.06 165.92"><defs><style>.cls-1,.cls-2{fill:#ee243d;}.cls-1{fill-rule:evenodd;}.cls-3{font-size:73.29px;fill:#231f20;font-family:GEEKSHelveticaNeue-Thin, GEEKS Helvetica Neue;font-weight:200;letter-spacing:0.09em;}.cls-4{letter-spacing:0.07em;}.cls-5{letter-spacing:0.09em;}</style></defs><g id="Layer_2" data-name="Layer 2"><g id="Layer_1-2" data-name="Layer 1"><path class="cls-1" d="M102,14.31c-2.85-4.76-6.27-7.8-11.59-7.8s-8.93,3-11.78,7.8L0,146.57H27.55l61.88-106,51.63,85H56.86L45.2,146.57H181.6Z"/><path class="cls-2" d="M232.81,102.67c17.72-6.91,28.27-23.26,28.27-46.32,0-31.16-18.46-51-49.76-51h-100l15.07,24.42h84.95c16.4,0,26.21,8.84,26.21,26.91S228.47,84.8,211.32,84.8H161.63l12.78,21.53h31.4l23.54,40.6h30.3"/><path class="cls-2" d="M315.47,5.39h-54l14.08,24.4,39.88,0c24.69,0,42.78,20.45,42.78,46.78s-18.09,45.76-42.78,45.76l-53.65,0,13.77,24.37h39.88c38.63,0,66.7-30.76,66.7-71.32S354.1,5.39,315.47,5.39Z"/><text class="cls-3" transform="translate(437.92 62.29)">ЛИЗИНГ<tspan class="cls-4"><tspan x="0" y="87.95">К</tspan><tspan class="cls-5" x="50.2" y="87.95">ОМПАНИ</tspan></tspan></text></g></g></svg>