<svg width="18" height="19" viewBox="0 0 18 19" fill="none" xmlns="http://www.w3.org/2000/svg">
<path fill-rule="evenodd" clip-rule="evenodd" d="M7.48271 1.95313H7.45762C6.43215 1.95312 5.62818 1.95312 4.98202 2.00591C4.32404 2.05967 3.78047 2.17095 3.28847 2.42164C2.47964 2.83376 1.82204 3.49136 1.40992 4.30019C1.15923 4.79219 1.04795 5.33576 0.994194 5.99373C0.9414 6.6399 0.941403 7.44387 0.941406 8.46934V8.49443V10.0332V10.0583C0.941403 11.0837 0.9414 11.8877 0.994194 12.5339C1.04795 13.1919 1.15923 13.7354 1.40992 14.2274C1.82204 15.0363 2.47964 15.6939 3.28847 16.106C3.78047 16.3567 4.32404 16.4679 4.98202 16.5217C5.62819 16.5745 6.43216 16.5745 7.45764 16.5745H7.48271H10.5215H10.5465C11.572 16.5745 12.376 16.5745 13.0222 16.5217C13.6801 16.4679 14.2237 16.3567 14.7157 16.106C15.5245 15.6939 16.1821 15.0363 16.5943 14.2274C16.8449 13.7354 16.9562 13.1919 17.01 12.5339C17.0628 11.8877 17.0628 11.0837 17.0628 10.0583V10.0332V8.49443V8.46935C17.0628 7.44388 17.0628 6.6399 17.01 5.99373C16.9562 5.33576 16.8449 4.79219 16.5943 4.30019C16.1821 3.49136 15.5245 2.83376 14.7157 2.42164C14.2237 2.17095 13.6801 2.05967 13.0222 2.00591C12.376 1.95312 11.572 1.95312 10.5466 1.95313H10.5215H7.48271ZM3.79756 3.42079C4.10513 3.26407 4.4847 3.17165 5.07333 3.12356C5.6685 3.07493 6.42675 3.07449 7.48271 3.07449H10.5215C11.5774 3.07449 12.3357 3.07493 12.9308 3.12356C13.5195 3.17165 13.899 3.26407 14.2066 3.42079C14.8045 3.7254 15.2905 4.21145 15.5951 4.80928C15.7518 5.11685 15.8442 5.49642 15.8923 6.08505C15.941 6.68022 15.9414 7.43847 15.9414 8.49443V10.0332C15.9414 11.0891 15.941 11.8474 15.8923 12.4426C15.8442 13.0312 15.7518 13.4108 15.5951 13.7183C15.2905 14.3162 14.8045 14.8022 14.2066 15.1068C13.899 15.2635 13.5195 15.356 12.9308 15.4041C12.3357 15.4527 11.5774 15.4531 10.5215 15.4531H7.48271C6.42675 15.4531 5.6685 15.4527 5.07333 15.4041C4.4847 15.356 4.10513 15.2635 3.79756 15.1068C3.19973 14.8022 2.71368 14.3162 2.40907 13.7183C2.25235 13.4108 2.15993 13.0312 2.11184 12.4426C2.06321 11.8474 2.06277 11.0891 2.06277 10.0332V8.49443C2.06277 7.43847 2.06321 6.68022 2.11184 6.08505C2.15993 5.49642 2.25235 5.11685 2.40907 4.80928C2.71368 4.21145 3.19973 3.7254 3.79756 3.42079ZM4.81217 5.79686C4.55452 5.62509 4.20641 5.69472 4.03464 5.95237C3.86288 6.21002 3.9325 6.55813 4.19015 6.72989L4.94015 7.22989L5.02799 7.28846L5.028 7.28847C6.15898 8.04263 6.83204 8.49144 7.55927 8.70828C8.50007 8.9888 9.50225 8.9888 10.443 8.70828C11.1703 8.49144 11.8433 8.04262 12.9743 7.28846L13.0622 7.22989L13.8122 6.72989C14.0698 6.55813 14.1394 6.21002 13.9677 5.95237C13.7959 5.69472 13.4478 5.62509 13.1901 5.79686L12.4401 6.29686C11.1944 7.12735 10.6683 7.47098 10.1226 7.63367C9.3909 7.85185 8.61142 7.85185 7.87969 7.63367C7.33407 7.47098 6.80791 7.12735 5.56217 6.29686L5.56212 6.29683L4.81217 5.79686Z" fill="#BBC1C9"/>
</svg>
