<svg width="20" height="15" viewBox="0 0 20 15" fill="none" xmlns="http://www.w3.org/2000/svg">
<path d="M10.4383 14.3532L6.37607 14.2773C5.06083 14.2508 3.7423 14.3036 2.45285 14.0296C0.491281 13.6201 0.352317 11.6122 0.206906 9.92791C0.00654353 7.56007 0.0841097 5.14925 0.462219 2.80118C0.675674 1.48366 1.51571 0.697489 2.81479 0.611939C7.20014 0.301464 11.6146 0.338258 15.9903 0.483106C16.4524 0.496385 16.9177 0.56896 17.3734 0.651571C19.6227 1.05449 19.6775 3.32989 19.8233 5.24534C19.9688 7.18057 19.9074 9.12572 19.6294 11.0478C19.4065 12.6392 18.9798 13.9737 17.1795 14.1025C14.9237 14.271 12.7197 14.4066 10.4576 14.3635C10.4577 14.3532 10.4447 14.3532 10.4383 14.3532ZM8.05009 10.3242C9.74999 9.32683 11.4175 8.34604 13.1076 7.35532C11.4046 6.3579 9.74027 5.37712 8.05009 4.38639V10.3242Z" fill="#646464"/>
</svg>
