<svg width="18" height="19" viewBox="0 0 18 19" fill="none" xmlns="http://www.w3.org/2000/svg">
<path fill-rule="evenodd" clip-rule="evenodd" d="M2.81082 8.13881C2.81082 4.73988 5.51669 2.32449 9.00014 2.32449C12.4836 2.32449 15.1895 4.73988 15.1895 8.13881C15.1895 10.9001 13.9634 12.9164 12.5522 14.2524C11.8445 14.9224 11.094 15.4169 10.4386 15.7418C9.76468 16.0759 9.2475 16.203 9.00014 16.203C8.75277 16.203 8.23559 16.0759 7.56164 15.7418C6.90623 15.4169 6.15582 14.9224 5.44811 14.2524C4.0369 12.9164 2.81082 10.9001 2.81082 8.13881ZM9.00014 1.20312C4.98358 1.20312 1.68945 4.03774 1.68945 8.13881C1.68945 11.2664 3.08837 13.5625 4.67716 15.0667C5.46945 15.8168 6.31279 16.3743 7.06364 16.7465C7.79593 17.1095 8.4975 17.3244 9.00014 17.3244C9.50277 17.3244 10.2043 17.1095 10.9366 16.7465C11.6875 16.3743 12.5308 15.8168 13.3231 15.0667C14.9119 13.5625 16.3108 11.2664 16.3108 8.13881C16.3108 4.03774 13.0167 1.20312 9.00014 1.20312ZM7.31089 8.51095C7.31089 7.57797 8.06722 6.82164 9.0002 6.82164C9.93319 6.82164 10.6895 7.57797 10.6895 8.51095C10.6895 9.44394 9.93319 10.2003 9.0002 10.2003C8.06722 10.2003 7.31089 9.44394 7.31089 8.51095ZM9.0002 5.70027C7.44791 5.70027 6.18952 6.95866 6.18952 8.51095C6.18952 10.0633 7.44791 11.3216 9.0002 11.3216C10.5525 11.3216 11.8109 10.0633 11.8109 8.51095C11.8109 6.95866 10.5525 5.70027 9.0002 5.70027Z" fill="#BBC1C9"/>
</svg>
