<svg xmlns="http://www.w3.org/2000/svg" viewBox="0 0 254.76 45.45"><defs><style>.cls-1,.cls-2{fill:#ee243d;}.cls-1{fill-rule:evenodd;}.cls-3{fill:#231f20;}</style></defs><g id="Layer_2" data-name="Layer 2"><g id="Layer_1-2" data-name="Layer 1"><path class="cls-1" d="M28.26,5.5A3.66,3.66,0,0,0,25,3.34,3.73,3.73,0,0,0,21.78,5.5L0,42.15H7.63L24.78,12.77l14.3,23.54H15.75l-3.23,5.84h37.8Z"/><path class="cls-2" d="M64.51,30c4.91-1.91,7.83-6.44,7.83-12.83C72.34,8.52,67.22,3,58.55,3H30.84L35,9.8H58.55c4.55,0,7.26,2.45,7.26,7.45S63.3,25,58.55,25H44.78l3.54,6H57l6.53,11.25h8.39"/><path class="cls-2" d="M87.41,3h-15l3.9,6.76h11c6.84,0,11.85,5.66,11.85,13s-5,12.68-11.85,12.68H72.54l3.82,6.75h11c10.7,0,18.48-8.52,18.48-19.76S98.11,3,87.41,3Z"/><path class="cls-3" d="M116.73,11a9.24,9.24,0,0,1,.45-2.91A7.1,7.1,0,0,1,118.5,5.7a6.08,6.08,0,0,1,2.12-1.58,6.83,6.83,0,0,1,2.84-.57,6.56,6.56,0,0,1,2.16.32,5.47,5.47,0,0,1,1.54.82,4.59,4.59,0,0,1,1,1,5.74,5.74,0,0,1,.6,1.09,4.64,4.64,0,0,1,.29.87c.05.24.08.38.08.4h-.87a4.21,4.21,0,0,0-.58-1.59,4.31,4.31,0,0,0-1.09-1.2,4.76,4.76,0,0,0-1.45-.75,5.31,5.31,0,0,0-1.7-.26,5.42,5.42,0,0,0-4.31,2A6.07,6.07,0,0,0,118,8.38a8.06,8.06,0,0,0-.4,2.58,8,8,0,0,0,.4,2.57,6.07,6.07,0,0,0,1.15,2.11,5.42,5.42,0,0,0,4.31,2,4.54,4.54,0,0,0,1.94-.42A5.38,5.38,0,0,0,127,16.06a5.73,5.73,0,0,0,1.55-3.54h.87a6.86,6.86,0,0,1-.63,2.34,6.43,6.43,0,0,1-1.28,1.85,5.76,5.76,0,0,1-1.82,1.22,5.58,5.58,0,0,1-2.2.44,6.83,6.83,0,0,1-2.84-.58,6.18,6.18,0,0,1-2.12-1.57,7.25,7.25,0,0,1-1.32-2.36A9.17,9.17,0,0,1,116.73,11Z"/><path class="cls-3" d="M137.39,3.88h1L143.93,18H143l-1.78-4.54h-6.78L132.64,18h-.93Zm3.55,8.86-3-8h0l-3.15,8Z"/><path class="cls-3" d="M146.92,3.88h.87V10.3h9V3.88h.87V18h-.87v-7h-9v7h-.87Z"/><path class="cls-3" d="M161,3.88h1l4.48,6.22L171,3.88h1l-5,6.88L172.28,18h-1.05l-4.79-6.62L161.62,18h-1l5.31-7.27Z"/><path class="cls-3" d="M184.74,3.88h1L180,12.1V18h-.88V12.1l-5.64-8.22h1l5.11,7.49Z"/><path class="cls-3" d="M198.09,3.88h1l-5.69,8.22V18h-.87V12.1l-5.65-8.22h1L193,11.37Z"/><path class="cls-3" d="M201.88,3.88h8.64v.76h-7.77V18h-.87Z"/><path class="cls-3" d="M223.37,5h-.06L214.54,18h-1.07V3.88h.87V16.94h.06l8.76-13.06h1.09V18h-.88Z"/><path class="cls-3" d="M238.63,5h-.06L229.79,18h-1.07V3.88h.87V16.94h.06l8.76-13.06h1.09V18h-.87Zm-1.8-5a2.69,2.69,0,0,1-.29.91,2.74,2.74,0,0,1-.58.76,2.64,2.64,0,0,1-.79.52,2.32,2.32,0,0,1-.94.19,2.83,2.83,0,0,1-1.88-.63A2.57,2.57,0,0,1,231.46,0h.65a2.37,2.37,0,0,0,.36.85,2.24,2.24,0,0,0,.52.54,1.57,1.57,0,0,0,.61.26,2.6,2.6,0,0,0,.61.07,1.84,1.84,0,0,0,1.3-.47A2.15,2.15,0,0,0,236.17,0Z"/><path class="cls-3" d="M244,3.88h.87V10.3h9V3.88h.88V18h-.88v-7h-9v7H244Z"/><path class="cls-3" d="M117.26,27.66h.88v6.42h9V27.66H128V41.8h-.87v-7h-9v7h-.88Z"/><path class="cls-3" d="M136.3,34.08h7.43a9.32,9.32,0,0,0-.49-2.5,6,6,0,0,0-1.08-1.89,4.68,4.68,0,0,0-1.65-1.2,5.48,5.48,0,0,0-2.21-.42,5.71,5.71,0,0,0-3.39,1,4.85,4.85,0,0,0-1.9,2.72h-.87a6,6,0,0,1,2.13-3.26,7.24,7.24,0,0,1,6.71-.67,5.45,5.45,0,0,1,2,1.48,6.81,6.81,0,0,1,1.23,2.35,10.69,10.69,0,0,1,.42,3.11,9.25,9.25,0,0,1-.47,3,6.7,6.7,0,0,1-1.34,2.32,5.82,5.82,0,0,1-2.07,1.48,6.6,6.6,0,0,1-2.65.53,7,7,0,0,1-2.55-.43,5.35,5.35,0,0,1-1.91-1.2,5.5,5.5,0,0,1-1.24-1.82,7,7,0,0,1-.53-2.3h.86a6.1,6.1,0,0,0,.46,2A5.07,5.07,0,0,0,134.23,40a4.81,4.81,0,0,0,1.64,1,5.82,5.82,0,0,0,2.16.38,5.64,5.64,0,0,0,2.31-.47,5.16,5.16,0,0,0,1.81-1.33,6.33,6.33,0,0,0,1.18-2.07,8.12,8.12,0,0,0,.42-2.69H136.3Z"/><path class="cls-3" d="M148.45,27.66h8.64v.75h-7.77V41.8h-.87Z"/><path class="cls-3" d="M171.09,45.45V41.8H160v3.65h-.86v-4.4h1.25a13.79,13.79,0,0,0,1.18-2.9,22.17,22.17,0,0,0,.64-3c.13-1,.22-2,.25-2.92s.05-1.81.05-2.6v-2h8V41.05h1.42v4.4Zm-1.45-17H163.4v1.35c0,.79,0,1.65,0,2.58s-.12,1.89-.26,2.87a24.68,24.68,0,0,1-.62,3,14,14,0,0,1-1.12,2.86h8.28Z"/><path class="cls-3" d="M179.07,34.08h7.43a9.32,9.32,0,0,0-.49-2.5,6,6,0,0,0-1.08-1.89,4.59,4.59,0,0,0-1.65-1.2,5.43,5.43,0,0,0-2.2-.42,5.72,5.72,0,0,0-3.4,1,4.88,4.88,0,0,0-1.89,2.72h-.88A6.08,6.08,0,0,1,177,28.52a6.47,6.47,0,0,1,4.06-1.2,6.4,6.4,0,0,1,2.65.53,5.37,5.37,0,0,1,2,1.48A6.49,6.49,0,0,1,187,31.68a10.67,10.67,0,0,1,.43,3.11,9,9,0,0,1-.48,3,6.7,6.7,0,0,1-1.34,2.32,5.82,5.82,0,0,1-2.07,1.48,6.57,6.57,0,0,1-2.65.53,7,7,0,0,1-2.55-.43,5.45,5.45,0,0,1-3.15-3,7,7,0,0,1-.52-2.3h.85a6.37,6.37,0,0,0,.46,2A4.94,4.94,0,0,0,177,40a4.77,4.77,0,0,0,1.63,1,5.82,5.82,0,0,0,2.16.38,5.69,5.69,0,0,0,2.32-.47,5,5,0,0,0,1.8-1.33,6.33,6.33,0,0,0,1.18-2.07,8.12,8.12,0,0,0,.42-2.69h-7.45Z"/><path class="cls-3" d="M200.81,27.66V41.8h-.87V28.41h-6.26l-.32,8.9a12.31,12.31,0,0,1-.23,2.15,4.5,4.5,0,0,1-.54,1.46,2.15,2.15,0,0,1-.88.82,2.86,2.86,0,0,1-1.24.26,3.08,3.08,0,0,1-.7-.07,4.57,4.57,0,0,1-.59-.17V41a2.54,2.54,0,0,0,1.19.28,2.07,2.07,0,0,0,.88-.19,1.51,1.51,0,0,0,.64-.66,4.23,4.23,0,0,0,.41-1.26,13.54,13.54,0,0,0,.19-2l.33-9.51Z"/></g></g></svg>