<svg xmlns="http://www.w3.org/2000/svg" viewBox="0 0 279.05 40.54"><defs><style>.cls-1,.cls-2{fill:#ee243d;}.cls-1{fill-rule:evenodd;}.cls-3{fill:#231f20;}</style></defs><g id="Layer_2" data-name="Layer 2"><g id="Layer_1-2" data-name="Layer 1"><path class="cls-1" d="M29,2.54A3.75,3.75,0,0,0,25.74.32a3.83,3.83,0,0,0-3.36,2.22L0,40.19H7.85L25.46,10l14.7,24.2h-24l-3.32,6H51.71Z"/><path class="cls-2" d="M66.29,27.7c5-2,8-6.63,8-13.19C74.34,5.64,69.08,0,60.17,0H31.69L36,7H60.17c4.67,0,7.46,2.52,7.46,7.66s-2.58,8-7.46,8H46l3.64,6.13H58.6L65.3,40.3h8.63"/><path class="cls-2" d="M89.82,0H74.46l4,7H89.82c7,0,12.18,5.83,12.18,13.33s-5.15,13-12.18,13l-15.28,0,3.93,6.94H89.82c11,0,19-8.76,19-20.31S100.82,0,89.82,0Z"/><path class="cls-3" d="M140.26,16.43h-.84V5.87q0-1.35.12-2.76a7.46,7.46,0,0,0-.31.83c-.1.3-.2.57-.32.84l-5,11.65h-.84l-5-11.51a8,8,0,0,1-.34-.88c-.1-.29-.21-.58-.31-.89,0,.47.05.92.07,1.36s0,.89,0,1.36V16.43h-.84V2.32h1.19l.54,1.27.67,1.56.75,1.73.74,1.74,1.8,4.16.46,1.12c.13.34.25.63.35.86s.22.55.3.78a6.86,6.86,0,0,1,.26-.7c.08-.22.18-.48.31-.78s.26-.63.42-1c.62-1.45,1.22-2.85,1.78-4.2.24-.57.49-1.16.75-1.76l.76-1.78c.25-.57.49-1.12.7-1.63l.59-1.37h1.17Z"/><path class="cls-3" d="M156.13,3.07h-8.66V8.72h8.12v.75h-8.12v6.2h8.74v.76h-9.59V2.32h9.51Z"/><path class="cls-3" d="M172.55,16.43h-.85v-7h-9v7h-.86V2.32h.86V8.68h9V2.32h.85Z"/><path class="cls-3" d="M188.42,3.07h-8.66V8.72h8.13v.75h-8.13v6.2h8.74v.76h-9.59V2.32h9.51Z"/><path class="cls-3" d="M205.48,8.4l-2.54,2.32v5.71h-.85V10.72L199.56,8.4l-6,8H192.5l6.44-8.6-6-5.51H194l8.1,7.41V2.32h.85V9.73l8.11-7.41h1.11l-6,5.51,6.43,8.6h-1.07Z"/><path class="cls-3" d="M231,16.43h-.83V5.87q0-1.35.12-2.76a7.5,7.5,0,0,0-.32.83,7,7,0,0,1-.32.84l-5,11.65h-.83l-5-11.51a8,8,0,0,1-.35-.88l-.31-.89c0,.47,0,.92.07,1.36s0,.89,0,1.36V16.43h-.83V2.32h1.19c.14.36.32.78.53,1.27l.68,1.56c.23.56.48,1.13.74,1.73s.5,1.17.74,1.74l1.8,4.16c.18.41.33.78.46,1.12s.25.63.36.86.21.55.29.78c.07-.22.16-.45.26-.7s.18-.48.31-.78.27-.63.42-1c.63-1.45,1.22-2.85,1.79-4.2.24-.57.48-1.16.74-1.76l.76-1.78.71-1.63c.21-.52.41-1,.58-1.37H231Z"/><path class="cls-3" d="M246.85,3.07h-8.66V8.72h8.13v.75h-8.13v6.2h8.74v.76h-9.59V2.32h9.51Z"/><path class="cls-3" d="M263.27,16.43h-.85v-7h-9.05v7h-.85V2.32h.85V8.68h9.05V2.32h.85Z"/><path class="cls-3" d="M279.05,3.07h-5V16.43h-.85V3.07h-5V2.32h10.86Z"/><path class="cls-3" d="M131.08,32,138,40.2h-1.09l-6.42-7.66-2.93,2.67v5h-.86V26.1h.86v8.1l8.91-8.1h1.13Z"/><path class="cls-3" d="M148.54,25.76a6.55,6.55,0,0,1,2.72.55,6,6,0,0,1,2.13,1.53,7,7,0,0,1,1.39,2.37,8.93,8.93,0,0,1,.5,3,8.74,8.74,0,0,1-.49,3,6.57,6.57,0,0,1-1.38,2.3A6.07,6.07,0,0,1,151.28,40a6.93,6.93,0,0,1-2.74.52A6.77,6.77,0,0,1,145.8,40a6.18,6.18,0,0,1-2.11-1.49,6.62,6.62,0,0,1-1.35-2.33,9.09,9.09,0,0,1-.48-3,8.76,8.76,0,0,1,.49-3,6.93,6.93,0,0,1,1.36-2.34,6.08,6.08,0,0,1,2.11-1.5A6.71,6.71,0,0,1,148.54,25.76Zm0,.75a5.37,5.37,0,0,0-2.49.55,5.51,5.51,0,0,0-1.82,1.45,6.24,6.24,0,0,0-1.12,2.1,8.32,8.32,0,0,0-.38,2.5,8.5,8.5,0,0,0,.42,2.73,6.13,6.13,0,0,0,1.18,2.1,5.22,5.22,0,0,0,1.83,1.36,5.6,5.6,0,0,0,2.38.49,5.83,5.83,0,0,0,2.39-.48A5.34,5.34,0,0,0,152.78,38a6.29,6.29,0,0,0,1.2-2.09,8.14,8.14,0,0,0,.42-2.68A8.28,8.28,0,0,0,154,30.5a6.54,6.54,0,0,0-1.2-2.12A5.23,5.23,0,0,0,150.93,27,5.68,5.68,0,0,0,148.54,26.51Z"/><path class="cls-3" d="M174.65,40.2h-.83V29.64c0-.9,0-1.81.12-2.75a6.81,6.81,0,0,0-.32.83,6.81,6.81,0,0,1-.32.83l-5,11.65h-.83l-5-11.51a7.9,7.9,0,0,1-.35-.87c-.1-.29-.2-.59-.31-.89,0,.46.05.91.07,1.36s0,.89,0,1.35V40.2h-.83V26.1h1.19c.14.35.32.78.53,1.26l.68,1.57c.24.56.48,1.13.74,1.72s.51,1.18.74,1.75c.57,1.32,1.17,2.71,1.81,4.16.17.41.32.78.45,1.12s.25.62.36.86.22.55.3.77c.06-.21.15-.44.25-.69s.19-.49.31-.78l.43-1,1.78-4.21c.24-.56.49-1.15.74-1.76s.51-1.2.77-1.77l.7-1.64.58-1.36h1.17Z"/><path class="cls-3" d="M191.89,40.2H191V26.85H182V40.2h-.85V26.1h10.76Z"/><path class="cls-3" d="M209.09,40.2h-1l-1.77-4.55h-6.79l-1.81,4.55h-.93l5.73-14.1h.91Zm-5.57-11.81a7.63,7.63,0,0,1-.26-.73c-.08-.26-.16-.51-.25-.75-.1.24-.18.47-.26.71a6.15,6.15,0,0,1-.28.71l-2.64,6.6h6.27Z"/><path class="cls-3" d="M224.84,40.2H224v-7h-9.06v7h-.85V26.1h.85v6.36H224V26.1h.85Z"/><path class="cls-3" d="M241.22,27.19h-.06l-8.79,13h-1.05V26.1h.85v13h.06l8.78-13h1.07V40.2h-.86Z"/></g></g></svg>