<svg xmlns="http://www.w3.org/2000/svg" xmlns:xlink="http://www.w3.org/1999/xlink" viewBox="0 0 755.43 260.03"><defs><style>.cls-1{fill:url(#linear-gradient);}.cls-2{fill:url(#linear-gradient-2);}.cls-3{fill:url(#linear-gradient-3);}.cls-4{fill:url(#linear-gradient-4);}.cls-5{fill:url(#linear-gradient-5);}.cls-6{fill:url(#linear-gradient-6);}.cls-7{fill:url(#linear-gradient-7);}.cls-8{font-size:25.6px;letter-spacing:0em;}.cls-13,.cls-8{fill:#231f20;font-family:Montserrat-SemiBold, Montserrat;font-weight:600;}.cls-9{letter-spacing:-0.03em;}.cls-10{letter-spacing:-0.01em;}.cls-11{letter-spacing:0em;}.cls-12{letter-spacing:-0.01em;}.cls-13{font-size:47.96px;}.cls-14{letter-spacing:-0.02em;}.cls-15{letter-spacing:-0.08em;}.cls-16{letter-spacing:-0.03em;}.cls-17{letter-spacing:-0.02em;}.cls-18{letter-spacing:0em;}.cls-19{letter-spacing:-0.01em;}.cls-20{letter-spacing:-0.01em;}.cls-21{letter-spacing:-0.01em;}</style><linearGradient id="linear-gradient" x1="16.55" y1="212.37" x2="16.55" y2="125.95" gradientUnits="userSpaceOnUse"><stop offset="0" stop-color="#044f8d"/><stop offset="1" stop-color="#147a85"/></linearGradient><linearGradient id="linear-gradient-2" x1="149.06" y1="152.32" x2="149.06" y2="65.9" gradientUnits="userSpaceOnUse"><stop offset="0" stop-color="#148582"/><stop offset="1" stop-color="#54bb6d"/></linearGradient><linearGradient id="linear-gradient-3" x1="60.38" y1="260.03" x2="60.38" y2="162.7" gradientUnits="userSpaceOnUse"><stop offset="0" stop-color="#044f8d"/><stop offset="1" stop-color="#126989"/></linearGradient><linearGradient id="linear-gradient-4" x1="105.31" y1="229.78" x2="105.31" y2="132.45" gradientUnits="userSpaceOnUse"><stop offset="0" stop-color="#044f8d"/><stop offset="1" stop-color="#158d81"/></linearGradient><linearGradient id="linear-gradient-5" x1="59.8" y1="160.76" x2="59.8" y2="39.68" gradientUnits="userSpaceOnUse"><stop offset="0" stop-color="#106689"/><stop offset="1" stop-color="#54bb6d"/></linearGradient><linearGradient id="linear-gradient-6" x1="105.49" y1="131.8" x2="105.49" gradientUnits="userSpaceOnUse"><stop offset="0" stop-color="#128a82"/><stop offset="1" stop-color="#71c05a"/></linearGradient><linearGradient id="linear-gradient-7" x1="469.3" y1="170.78" x2="469.3" y2="167.54" gradientUnits="userSpaceOnUse"><stop offset="0" stop-color="#044f8d"/><stop offset="1" stop-color="#71c05a"/></linearGradient></defs><g id="Layer_2" data-name="Layer 2"><g id="Layer_1-2" data-name="Layer 1"><polygon class="cls-1" points="33.11 199.84 0 212.37 0 138.49 33.11 125.95 33.11 199.84"/><polygon class="cls-2" points="165.62 139.79 132.51 152.32 132.51 78.43 165.62 65.9 165.62 139.79"/><polygon class="cls-3" points="76.99 247.56 43.77 260.03 43.77 175.16 76.99 162.7 76.99 247.56"/><polygon class="cls-4" points="121.93 217.32 88.7 229.78 88.7 144.92 121.93 132.45 121.93 217.32"/><polygon class="cls-5" points="75.84 39.68 43.77 51.3 43.77 160.76 75.84 149.14 75.84 39.68"/><polygon class="cls-6" points="121.53 0 89.46 12.65 89.46 131.8 121.53 119.16 121.53 0"/><rect class="cls-7" x="200.47" y="167.54" width="537.66" height="3.24"/><text class="cls-8" transform="translate(200.57 226.1)">Б<tspan class="cls-9" x="18.69" y="0">А</tspan><tspan class="cls-10" x="37.69" y="0">Я</tspan><tspan class="cls-11" x="56.25" y="0">ЛГИЙН </tspan><tspan class="cls-12" x="161.67" y="0">С</tspan><tspan class="cls-11" x="179.75" y="0">АН </tspan></text><text class="cls-13" transform="translate(200.09 93.93)"><tspan class="cls-14">Х</tspan><tspan x="31.99" y="0">ӨРӨН</tspan><tspan class="cls-15" x="186.76" y="0">Г</tspan><tspan x="210.98" y="0">Ө О</tspan><tspan class="cls-16" x="305.27" y="0">РУУ</tspan><tspan x="403.88" y="0">ЛА</tspan><tspan class="cls-17" x="479.28" y="0">Г</tspan><tspan class="cls-18" x="506.52" y="0">Ч </tspan><tspan class="cls-19" x="0" y="57.55">Ү</tspan><tspan class="cls-20" x="32.52" y="57.55">Н</tspan><tspan x="71.42" y="57.55">ДЭ</tspan><tspan class="cls-21" x="144.6" y="57.55">С</tspan><tspan x="178.8" y="57.55">ТЭН</tspan></text></g></g></svg>